<?xml version="1.0" encoding="UTF-8"?>
<svg xmlns="http://www.w3.org/2000/svg" xmlns:xlink="http://www.w3.org/1999/xlink" width="85pt" height="95pt" viewBox="0 0 85 95" version="1.1">
  <g id="surface1">
    <path style=" stroke:none;fill-rule:nonzero;fill:rgb(0%,0%,0%);fill-opacity:1;"
          d="M 21.632812 31.375 C 15.554688 31.988281 9.992188 36.089844 8.980469 40.710938 C 8.714844 41.933594 8.417969 42.527344 7.703125 43.304688 C 7.140625 43.917969 7.121094 43.976562 7.355469 44.363281 C 7.835938 45.125 8.914062 45.644531 9.976562 45.644531 C 10.824219 45.644531 10.972656 45.699219 11.15625 46.089844 C 12.035156 47.90625 14.890625 48.429688 16.285156 47.015625 C 16.601562 46.703125 16.601562 46.683594 16.269531 46.292969 C 16.085938 46.070312 15.9375 45.757812 15.9375 45.609375 C 15.9375 45.347656 16.085938 45.3125 16.816406 45.382812 C 18.046875 45.53125 19.042969 44.9375 19.554688 43.75 C 19.773438 43.269531 19.90625 42.789062 19.839844 42.675781 C 19.789062 42.582031 19.492188 42.492188 19.191406 42.492188 C 17.78125 42.492188 16.882812 40.46875 17.464844 38.574219 C 17.78125 37.554688 18.246094 36.980469 19.324219 36.328125 C 20.320312 35.734375 20.386719 35.71875 22.414062 35.71875 C 24.355469 35.71875 24.539062 35.753906 25.335938 36.21875 C 26.363281 36.832031 27.195312 37.871094 27.625 39.078125 C 27.890625 39.855469 27.957031 40.617188 28.023438 44.179688 L 28.089844 48.371094 L 27.542969 48.855469 C 25.75 50.359375 24.023438 50.804688 19.226562 51.023438 C 16.335938 51.15625 15.140625 51.285156 13.996094 51.601562 C 10.773438 52.472656 8.714844 54.125 7.652344 56.683594 C 5.976562 60.691406 5.578125 61.34375 4.167969 62.363281 L 3.75 62.660156 L 4.765625 63.421875 C 6.027344 64.382812 6.390625 64.941406 6.921875 66.757812 C 7.554688 68.96875 8.367188 70.433594 9.859375 72.085938 C 11.585938 74.015625 13.480469 75.109375 16.101562 75.703125 C 20.917969 76.816406 25.335938 75.832031 27.957031 73.105469 C 28.539062 72.492188 29.054688 71.992188 29.101562 71.992188 C 29.152344 71.992188 29.285156 72.289062 29.382812 72.660156 C 29.617188 73.457031 30.515625 74.609375 31.3125 75.164062 C 31.625 75.367188 32.457031 75.664062 33.171875 75.796875 C 34.28125 76.019531 34.5625 76.019531 35.3125 75.777344 C 35.777344 75.628906 36.359375 75.332031 36.589844 75.128906 L 37.023438 74.738281 L 37.585938 75.148438 C 38.449219 75.742188 40.375 76.09375 41.488281 75.851562 C 42.664062 75.609375 43.214844 75.296875 43.710938 74.554688 C 44.242188 73.753906 44.390625 72.902344 44.160156 72.066406 C 43.945312 71.34375 43.992188 71.34375 42.566406 71.824219 C 41.9375 72.03125 41.804688 72.011719 41.070312 71.601562 C 40.457031 71.269531 40.125 70.914062 39.710938 70.136719 L 39.164062 69.117188 L 39.210938 62.898438 C 39.261719 56.90625 39.28125 56.648438 39.628906 55.921875 C 40.058594 55.015625 40.957031 54.105469 41.9375 53.566406 C 42.335938 53.363281 42.664062 53.121094 42.664062 53.066406 C 42.664062 53.011719 42.300781 52.824219 41.867188 52.65625 C 41.4375 52.472656 40.804688 52.027344 40.476562 51.65625 C 39.378906 50.429688 39.296875 50.078125 39.164062 45.644531 C 39.03125 41.210938 38.765625 39.632812 37.800781 37.574219 C 35.59375 32.859375 29.648438 30.578125 21.632812 31.375 Z M 32.324219 41.914062 C 33.003906 43.027344 33.070312 43.898438 33.152344 52.101562 C 33.234375 60.15625 33.1875 60.859375 32.539062 63.492188 C 32.355469 64.199219 31.640625 65.3125 31.359375 65.3125 C 31.277344 65.3125 31.210938 60.304688 31.210938 53.046875 L 31.210938 40.78125 L 31.59375 41.042969 C 31.792969 41.191406 32.125 41.582031 32.324219 41.914062 Z M 28.023438 59.96875 L 27.972656 67.074219 L 27.523438 68.003906 C 26.679688 69.804688 25.46875 70.695312 23.855469 70.695312 C 21.617188 70.695312 20.203125 69.300781 19.390625 66.296875 C 18.960938 64.644531 18.910156 60.601562 19.324219 58.929688 C 20.085938 55.8125 20.882812 55.070312 24.203125 54.382812 C 25.285156 54.140625 27.359375 53.34375 27.640625 53.046875 C 27.726562 52.953125 27.859375 52.882812 27.941406 52.882812 C 28.007812 52.882812 28.054688 56.070312 28.023438 59.96875 Z M 14.242188 55.257812 C 14.277344 55.496094 13.996094 56.21875 13.546875 57.019531 C 12.601562 58.726562 12.285156 60.117188 12.285156 62.566406 C 12.285156 64.738281 12.585938 66 13.679688 68.410156 C 14.625 70.527344 14.425781 71.65625 13.332031 70.488281 C 12.203125 69.28125 11.007812 66.90625 10.359375 64.664062 C 10.226562 64.179688 9.230469 63.253906 8.382812 62.808594 C 8.300781 62.769531 8.367188 62.621094 8.53125 62.492188 C 10.078125 61.324219 10.175781 61.175781 10.707031 59.46875 C 11.339844 57.351562 12.101562 56.015625 13.082031 55.292969 C 13.929688 54.664062 14.160156 54.664062 14.242188 55.257812 Z M 14.242188 55.257812 "/>
    <path style=" stroke:none;fill-rule:nonzero;fill:rgb(0%,0%,0%);fill-opacity:1;"
          d="M 59.101562 31.710938 C 58.320312 31.988281 57.523438 32.507812 56.910156 33.175781 L 56.28125 33.84375 L 55.414062 33.492188 C 54.769531 33.230469 54.070312 33.140625 52.792969 33.140625 C 51.199219 33.121094 50.984375 33.15625 50.136719 33.640625 C 48.210938 34.753906 46.851562 37 47.03125 38.722656 C 47.132812 39.820312 47.3125 40.003906 47.945312 39.632812 C 48.640625 39.226562 50.21875 39.261719 51.066406 39.6875 C 52.210938 40.28125 52.328125 40.765625 52.261719 45.050781 C 52.210938 48.59375 52.195312 48.742188 51.765625 49.632812 C 51.214844 50.804688 50.21875 51.933594 49.222656 52.527344 C 48.375 53.03125 48.3125 53.195312 48.859375 53.417969 C 49.9375 53.882812 51.863281 55.703125 52.144531 56.554688 C 52.226562 56.796875 52.296875 59.929688 52.296875 63.550781 L 52.296875 70.101562 L 51.847656 70.710938 C 51.367188 71.34375 50.285156 71.972656 49.6875 71.992188 C 49.488281 71.992188 48.976562 71.863281 48.542969 71.695312 C 47.597656 71.34375 47.480469 71.472656 47.480469 72.828125 C 47.480469 74.496094 48.261719 75.425781 50.003906 75.8125 C 51.25 76.109375 52.710938 75.890625 53.839844 75.238281 L 54.617188 74.792969 L 55.183594 75.164062 C 56.695312 76.148438 59.085938 76.167969 60.578125 75.203125 L 61.292969 74.738281 L 62.023438 75.128906 C 63.648438 76.039062 66.257812 76.1875 67.570312 75.425781 C 68.582031 74.851562 69.210938 73.328125 68.945312 72.179688 C 68.765625 71.453125 68.648438 71.4375 67.4375 71.824219 C 65.992188 72.269531 64.164062 71.398438 63.648438 70.007812 C 63.351562 69.246094 63.320312 49.78125 63.601562 48.203125 C 64.28125 44.402344 67.003906 39.390625 69.113281 38.039062 C 71.304688 36.644531 73.378906 37.925781 73.378906 40.671875 C 73.378906 42.789062 71.484375 45.085938 69.757812 45.085938 C 69.09375 45.085938 69.0625 45.53125 69.644531 46.554688 C 70.273438 47.703125 71.085938 48.296875 72.148438 48.390625 C 72.648438 48.429688 73.046875 48.558594 73.046875 48.648438 C 73.046875 48.761719 72.929688 49.132812 72.78125 49.484375 C 72.515625 50.097656 72.515625 50.132812 72.863281 50.523438 C 73.179688 50.875 73.414062 50.933594 74.589844 50.933594 C 75.804688 50.933594 76.085938 50.859375 77.03125 50.339844 C 77.628906 50.003906 78.441406 49.410156 78.824219 49.003906 C 79.4375 48.351562 79.65625 48.242188 80.25 48.242188 C 81.082031 48.242188 82.160156 47.480469 82.675781 46.535156 L 82.992188 45.941406 L 82.261719 45.199219 C 81.382812 44.273438 81.117188 43.304688 81.230469 41.46875 C 81.347656 39.726562 81.082031 37.238281 80.667969 36.199219 C 79.503906 33.230469 77.03125 31.542969 73.894531 31.542969 C 71.085938 31.542969 68.730469 32.636719 66.738281 34.882812 C 65.558594 36.179688 64.03125 38.703125 63.816406 39.652344 C 63.566406 40.691406 63.433594 39.855469 63.382812 37.054688 C 63.335938 34.25 63.300781 33.992188 62.921875 33.210938 C 62.238281 31.839844 60.613281 31.210938 59.101562 31.710938 Z M 56.34375 41.710938 C 57.210938 43.121094 57.324219 44.179688 57.390625 51.84375 C 57.492188 60.914062 57.292969 63.085938 56.179688 64.699219 C 55.945312 65.035156 55.699219 65.3125 55.632812 65.3125 C 55.546875 65.3125 55.464844 63.125 55.414062 60.433594 C 55.351562 54.644531 55.28125 54.421875 53.804688 53.585938 L 52.910156 53.101562 L 53.6875 52.695312 C 54.585938 52.210938 55.035156 51.582031 55.265625 50.449219 C 55.367188 50.003906 55.449219 47.648438 55.449219 45.234375 C 55.449219 40.414062 55.484375 40.320312 56.34375 41.710938 Z M 56.34375 41.710938 "/>
  </g>
</svg>
